<svg width="445" height="419" viewBox="0 0 445 419" fill="none" xmlns="http://www.w3.org/2000/svg">
<g clip-path="url(#clip0_1_62)">
<path d="M445.42 257.186L399.675 310.308L379.242 234.05L445.42 257.186Z" fill="#6D31ED"/>
<path d="M216.215 188.41L187.042 187.27C170.104 186.609 155.085 176.186 148.541 160.55C145.697 153.79 143.551 146.99 143.658 141.925C143.727 138.775 144.668 136.316 147.018 135.102C152.978 132.013 157.919 133.94 161.907 138.042C164.654 140.87 166.947 144.713 168.837 148.71C174.998 161.783 187.081 171.086 201.295 173.7C210.848 175.485 219.458 177.06 219.458 177.06C219.81 177.124 220.148 176.89 220.213 176.538C220.277 176.185 220.043 175.847 219.691 175.783C219.691 175.783 211.081 174.2 201.532 172.423C187.729 169.885 175.994 160.852 170.009 148.157C168.06 144.029 165.67 140.064 162.831 137.141C158.436 132.617 152.982 130.545 146.413 133.949C143.664 135.375 142.442 138.197 142.362 141.895C142.251 147.103 144.42 154.103 147.344 161.051C154.085 177.151 169.55 187.882 186.992 188.561L216.165 189.702C216.402 189.721 216.631 189.608 216.761 189.409C216.891 189.209 216.901 188.954 216.787 188.745C216.673 188.535 216.453 188.405 216.215 188.406V188.41Z" fill="white"/>
<path d="M219.962 176.298C224.176 173.702 229.252 172.715 234.032 174.456C235.352 174.975 236.527 175.808 237.453 176.883C237.917 177.457 238.236 178.074 238.141 178.694C238.047 179.148 237.789 179.551 237.417 179.828C236.577 180.548 235.697 180.428 234.861 180.054C233.811 179.59 232.818 178.769 231.904 178.259C229.338 176.818 226.371 176.606 223.767 178.085C223.556 178.194 223.422 178.41 223.417 178.648C223.413 178.885 223.538 179.106 223.745 179.224C223.951 179.342 224.205 179.337 224.407 179.212C226.602 177.965 229.105 178.177 231.27 179.391C232.213 179.92 233.257 180.76 234.334 181.241C235.619 181.812 236.946 181.923 238.253 180.821C238.977 180.21 239.326 179.548 239.424 178.891C239.512 178.21 239.374 177.519 239.032 176.923C238.148 175.256 235.922 173.773 234.485 173.248C229.315 171.369 223.832 172.408 219.281 175.201C218.976 175.389 218.88 175.789 219.068 176.095C219.256 176.4 219.656 176.496 219.962 176.308V176.298Z" fill="white"/>
<path d="M224.144 179.255C227.924 180.372 232.149 182.533 233.26 186.552C233.539 187.558 233.781 188.589 233.422 189.603C232.945 190.945 231.481 192.008 230.242 190.979C229.797 190.609 229.612 189.982 229.465 189.331C229.278 188.514 229.173 187.651 228.957 186.993C228.441 185.431 227.258 184.23 226.204 183.014C225.963 182.784 225.587 182.774 225.334 182.99C225.081 183.207 225.033 183.58 225.223 183.854C226.168 184.941 227.262 185.992 227.724 187.39C227.976 188.15 228.065 189.202 228.331 190.12C228.541 190.868 228.882 191.527 229.415 191.97C231.41 193.627 233.877 192.18 234.644 190.028C235.095 188.755 234.854 187.459 234.512 186.199C233.279 181.747 228.688 179.238 224.511 178.009C224.286 177.931 224.035 177.983 223.859 178.145C223.683 178.307 223.611 178.553 223.67 178.784C223.73 179.016 223.912 179.196 224.144 179.253V179.255Z" fill="white"/>
<path d="M225.111 183.541C226.02 185.993 226.659 187.797 225.237 190.292C224.973 190.755 224.599 191.146 224.149 191.433C223.795 191.643 223.391 191.754 223.009 191.521C222.726 191.348 222.686 190.994 222.65 190.637C222.591 190.063 222.635 189.45 222.587 189.009C222.404 187.384 221.638 185.947 220.789 184.578C220.594 184.29 220.207 184.208 219.911 184.391C219.615 184.574 219.516 184.957 219.687 185.261C220.435 186.466 221.138 187.722 221.298 189.152C221.356 189.694 221.285 190.49 221.415 191.16C221.537 191.79 221.816 192.315 222.335 192.63C222.953 193.008 223.717 193.058 224.378 192.764C225.218 192.424 225.966 191.634 226.365 190.933C228.016 188.037 227.383 185.939 226.329 183.089C226.205 182.753 225.831 182.581 225.494 182.706C225.158 182.831 224.987 183.204 225.111 183.541Z" fill="white"/>
<path d="M335.527 194.176C345.422 177.039 339.551 155.125 322.414 145.23C305.277 135.335 283.363 141.206 273.468 158.343L335.527 194.176Z" fill="#FF56A5"/>
<path d="M164.897 150.201C155.594 134.087 134.989 128.566 118.874 137.869C102.76 147.172 97.2389 167.777 106.542 183.891L164.897 150.201Z" fill="#6D31ED"/>
<path d="M337.664 120.131C337.664 120.131 322.809 126.399 312.855 117.308C302.355 107.718 308.191 101.059 312.109 100.651C323.699 99.4584 337.664 120.131 337.664 120.131Z" fill="white"/>
<path d="M268.957 209.726L253.485 217.853C249.976 219.692 246.838 222.101 244.396 225.117C241.954 228.132 240.034 231.517 238.969 235.3C237.905 239.082 237.518 242.918 238.02 246.703C238.522 250.487 239.65 254.143 241.632 257.459L275.57 314.236L279.262 320.891L292.576 313.508L288.884 306.851L258.682 248C258.157 246.976 257.977 245.835 257.899 244.712C257.821 243.588 258.109 242.532 258.47 241.478C258.831 240.424 259.507 239.588 260.228 238.817C260.948 238.046 261.855 237.557 262.817 237.137L278.777 230.035L288.924 225.123L279.098 204.831L268.957 209.726Z" fill="#FFD317"/>
<path d="M295.175 225.536L281.804 250.848C280.504 253.307 279.584 255.925 279.362 258.643C279.139 261.36 279.301 264.088 280.172 266.705C281.044 269.321 282.272 271.745 284.057 273.744C285.842 275.743 287.89 277.488 290.345 278.65L334.222 299.387L340.969 302.907L348.007 289.406L341.261 285.886L299.133 261.784L299.056 261.217L299.379 261.02L314.682 236.832L320.333 227.078L300.824 215.776L295.175 225.536Z" fill="#FFD317"/>
<path d="M286.197 334.48L284.708 330.767L283.156 325.628L293.433 322.524L294.985 327.663L296.474 334.813L297.553 338.388L283.021 345.553L279.886 347.376L276.247 341.105L279.382 339.284L286.197 334.48Z" fill="#FF56A5"/>
<path d="M280.021 352.578L298.786 342.893C299.34 342.588 299.55 341.898 299.261 341.337C298.971 340.775 298.286 340.547 297.717 340.822L278.952 350.507C278.398 350.812 278.187 351.502 278.477 352.063C278.767 352.625 279.452 352.853 280.021 352.578Z" fill="white"/>
<path d="M283.986 330.78C284.904 330.648 285.773 330.281 286.685 330.136C287.323 330.034 287.757 329.434 287.655 328.796C287.553 328.158 286.953 327.724 286.315 327.826C285.416 327.969 284.557 328.336 283.65 328.468C283.012 328.561 282.57 329.153 282.663 329.791C282.756 330.429 283.348 330.871 283.986 330.778V330.78Z" fill="white"/>
<path d="M285.273 334.769C286.258 334.769 287.249 334.821 288.234 334.788C288.876 334.767 289.381 334.23 289.36 333.587C289.34 332.945 288.803 332.441 288.16 332.461C287.19 332.492 286.218 332.431 285.25 332.442C284.607 332.448 284.091 332.974 284.098 333.617C284.104 334.259 284.63 334.775 285.273 334.769Z" fill="white"/>
<path d="M355.077 306.684L351.4 305.111L346.669 302.574L351.742 293.116L356.474 295.65L362.583 299.655L365.873 301.421L360.661 316.762L359.731 320.264L352.725 318.404L353.656 314.903L355.077 306.684Z" fill="#FF56A5"/>
<path d="M363.492 323.857L369.918 303.739C370.09 303.134 369.75 302.502 369.151 302.311C368.552 302.12 367.909 302.439 367.698 303.031L361.274 323.147C361.078 323.76 361.416 324.415 362.028 324.611C362.641 324.807 363.296 324.469 363.492 323.857Z" fill="white"/>
<path d="M350.903 305.631C351.457 304.889 351.812 304.014 352.354 303.268C352.731 302.746 352.614 302.017 352.092 301.64C351.57 301.262 350.841 301.379 350.464 301.901C349.928 302.64 349.58 303.505 349.034 304.24C348.772 304.573 348.711 305.021 348.875 305.411C349.039 305.801 349.401 306.071 349.822 306.117C350.243 306.163 350.655 305.976 350.898 305.631H350.903Z" fill="white"/>
<path d="M354.627 307.541C355.318 306.838 356.063 306.182 356.727 305.462C357.167 304.994 357.144 304.257 356.675 303.817C356.207 303.377 355.47 303.4 355.03 303.868C354.366 304.576 353.634 305.221 352.957 305.914C352.65 306.207 352.527 306.645 352.637 307.055C352.746 307.466 353.071 307.784 353.484 307.885C353.896 307.986 354.331 307.854 354.618 307.541H354.627Z" fill="white"/>
<path d="M110.788 333.873L114.515 338.856L117.531 342.118L111.01 348.149L107.995 344.887L99.5025 337.439L96.4386 334.127L103.448 322.35L107.197 316.949L118.003 324.45L114.253 329.851L110.788 333.873Z" fill="#6D31ED"/>
<path d="M111.401 352.385L94.5862 337.171C94.1351 336.785 93.4591 336.829 93.061 337.269C92.663 337.709 92.6874 338.386 93.1162 338.796L109.933 354.008C110.381 354.414 111.074 354.38 111.48 353.932C111.886 353.483 111.851 352.791 111.403 352.385H111.401Z" fill="white"/>
<path d="M116.362 327.942C115.327 327.429 114.441 326.657 113.422 326.136C112.884 325.861 112.225 326.074 111.95 326.613C111.675 327.151 111.888 327.81 112.427 328.085C113.46 328.612 114.354 329.389 115.4 329.903C115.754 330.103 116.189 330.09 116.53 329.87C116.872 329.651 117.063 329.26 117.028 328.855C116.993 328.451 116.736 328.099 116.362 327.942Z" fill="white"/>
<path d="M112.943 332.095C111.784 331.707 110.593 331.398 109.442 330.987C109.072 330.842 108.652 330.91 108.346 331.164C108.04 331.418 107.896 331.818 107.97 332.209C108.043 332.6 108.324 332.92 108.701 333.045C109.867 333.465 111.072 333.777 112.246 334.17C112.819 334.363 113.439 334.054 113.632 333.481C113.825 332.908 113.516 332.288 112.943 332.095Z" fill="white"/>
<path d="M233.35 300.382L238.754 297.293L242.359 294.702L247.546 301.913L243.939 304.504L235.505 312.02L231.843 314.654L221.015 306.254L216.114 301.867L224.883 292.066L229.785 296.451L233.35 300.382Z" fill="#6D31ED"/>
<path d="M251.798 302.03L234.631 316.852C234.173 317.248 234.122 317.94 234.518 318.399C234.914 318.857 235.607 318.907 236.065 318.511L253.224 303.685C253.534 303.434 253.683 303.033 253.612 302.641C253.541 302.248 253.262 301.925 252.883 301.798C252.505 301.671 252.088 301.76 251.794 302.03H251.798Z" fill="white"/>
<path d="M228.158 294.122C227.528 295.088 226.646 295.871 226.001 296.824C225.662 297.325 225.793 298.005 226.294 298.344C226.794 298.682 227.474 298.551 227.813 298.051C228.464 297.091 229.346 296.299 229.985 295.321C230.218 294.995 230.254 294.567 230.079 294.206C229.903 293.845 229.545 293.609 229.144 293.591C228.743 293.573 228.365 293.776 228.158 294.12V294.122Z" fill="white"/>
<path d="M231.838 298.013C231.311 299.115 230.859 300.26 230.309 301.352C230.036 301.891 230.252 302.55 230.791 302.823C231.33 303.096 231.989 302.88 232.262 302.341C232.821 301.236 233.281 300.077 233.814 298.96C234.053 298.418 233.819 297.784 233.285 297.529C232.751 297.273 232.11 297.487 231.838 298.013Z" fill="white"/>
<path d="M273.428 207.331L301.077 243.443L314.889 236.322L325.991 220.341L281.786 204.095L273.428 207.331Z" fill="white"/>
<path d="M290.033 184.736L278.903 196.246C278.708 196.443 278.427 196.531 278.154 196.481C277.881 196.43 277.651 196.248 277.538 195.994L269.978 178.264C269.811 177.983 269.822 177.63 270.006 177.36C270.19 177.09 270.514 176.952 270.837 177.005C271.159 177.058 271.422 177.293 271.509 177.608L278.584 194.186L289.765 182.615C289.966 182.412 290.257 182.326 290.537 182.386C290.816 182.447 291.046 182.645 291.146 182.913L297.446 200.505L309.822 187.978C310.013 187.79 310.283 187.704 310.548 187.748C310.813 187.793 311.041 187.961 311.162 188.201L320.779 208.102C320.911 208.502 320.726 208.938 320.347 209.121C319.968 209.304 319.512 209.178 319.28 208.827L310.177 189.988L297.701 202.617C297.498 202.817 297.208 202.9 296.93 202.838C296.652 202.777 296.425 202.579 296.325 202.313L290.033 184.736Z" fill="white"/>
<path d="M134.513 182.37C136.552 179.983 138.003 176.862 138.215 172.842C138.238 172.415 138.603 172.087 139.03 172.11C139.457 172.132 139.785 172.497 139.763 172.924C139.521 177.519 137.803 181.043 135.42 183.697C137.57 187.452 136.816 191.467 134.895 194.92C132.936 198.441 129.765 201.356 127.44 202.74C126.371 203.37 125.235 203.637 124.12 204.076C123.722 204.233 123.271 204.037 123.114 203.639C122.957 203.241 123.152 202.79 123.551 202.633C124.586 202.226 125.651 202.003 126.648 201.407C128.797 200.128 131.728 197.417 133.54 194.166C135.134 191.299 135.867 187.988 134.282 184.854C132.238 186.718 129.864 188.183 127.282 189.174C126.052 189.659 124.513 190.245 123.053 190.298C121.407 190.357 119.844 189.796 118.796 187.866C118.139 186.652 118.353 185.365 119.006 184.201C119.859 182.675 121.472 181.392 122.272 180.94C125.897 178.897 131.367 178.552 134.519 182.37H134.513ZM133.44 183.511C130.821 180.151 126.115 180.55 123.028 182.29C122.373 182.66 121.052 183.708 120.355 184.957C119.97 185.646 119.769 186.406 120.159 187.127C121.012 188.695 122.377 188.895 123.729 188.67C124.779 188.496 125.829 188.078 126.715 187.731C129.21 186.777 131.493 185.343 133.435 183.511H133.44Z" fill="white"/>
<path d="M274.518 64.7864C274.224 60.3953 273.095 55.3805 270.272 51.8777C269.793 51.2855 268.787 50.1809 267.769 49.7063C266.866 49.2863 265.955 49.2863 265.215 50.0927C264.777 50.5856 264.507 51.2059 264.447 51.863C264.376 52.7241 264.463 53.5908 264.703 54.4208C265.373 56.9744 266.328 59.4314 266.933 62.0018C266.991 62.2467 267.174 62.4425 267.415 62.5153C267.656 62.588 267.917 62.5268 268.101 62.3546C268.284 62.1824 268.362 61.9254 268.304 61.6805C267.698 59.0975 266.738 56.6279 266.066 54.0638C265.908 53.5076 265.826 52.9326 265.822 52.3544C265.797 51.8828 265.947 51.4185 266.242 51.0503C266.507 50.7626 266.843 50.8298 267.168 50.9831C267.992 51.3653 268.783 52.283 269.168 52.7618C271.816 56.0462 272.83 60.7628 273.105 64.8809C273.145 65.258 273.476 65.5362 273.854 65.5108C274.232 65.4853 274.523 65.1654 274.512 64.7864H274.518Z" fill="white"/>
<path d="M271.553 67.1748C271.001 65.8455 270.457 64.5099 269.688 63.2898C268.879 62.0408 267.66 61.1132 266.24 60.6669C265.264 60.3771 264.285 60.4086 263.483 60.8307C262.628 61.278 261.933 62.1768 261.708 63.7245C261.511 65.0706 261.969 66.4734 262.794 67.7544C263.963 69.4896 265.538 70.9133 267.383 71.9019C268.187 72.3159 269.063 72.5725 269.963 72.6579C270.747 72.6999 271.461 72.5067 271.942 72.0006C272.129 71.8206 272.202 71.552 272.132 71.3018C272.062 71.0515 271.86 70.8599 271.607 70.8032C271.353 70.7465 271.089 70.8338 270.919 71.0304C270.709 71.2509 270.381 71.2698 270.043 71.2509C269.338 71.1819 268.653 70.9773 268.025 70.6482C266.398 69.7769 265.009 68.521 263.978 66.99C263.348 66.0135 262.952 64.9551 263.101 63.9282C263.241 62.9601 263.605 62.3574 264.138 62.076C264.634 61.8177 265.238 61.8387 265.841 62.0172C266.934 62.3622 267.873 63.0773 268.496 64.0395C269.222 65.1945 269.73 66.4587 270.253 67.7145C270.402 68.0735 270.814 68.2436 271.173 68.0946C271.532 67.9456 271.702 67.5338 271.553 67.1748Z" fill="white"/>
<path d="M262.335 65.5555C261.712 65.4399 261.077 65.3997 260.445 65.4358C258.248 65.671 257.337 68.0566 257.807 69.9571C258.179 71.4691 260.281 73.8925 262.498 74.9656C264.151 75.7636 265.835 75.8056 267.018 74.5771C267.286 74.2959 267.276 73.8502 266.994 73.5817C266.713 73.3132 266.268 73.3236 265.999 73.6048C265.247 74.3923 264.164 74.2054 263.112 73.6972C261.278 72.811 259.483 70.8685 259.174 69.619C258.893 68.485 259.283 66.9772 260.594 66.8365C261.114 66.812 261.636 66.8508 262.148 66.952C262.525 66.9896 262.864 66.7228 262.916 66.3476C262.969 65.9724 262.716 65.6228 262.343 65.5555H262.335Z" fill="white"/>
<path d="M264.52 83.0397C267.34 103.324 272.848 124.294 278.737 143.992C278.846 144.357 279.23 144.564 279.594 144.455C279.959 144.346 280.166 143.962 280.057 143.597C274.19 123.965 268.696 103.067 265.885 82.8486C265.832 82.4717 265.483 82.2089 265.107 82.2617C264.73 82.3144 264.467 82.6628 264.52 83.0397Z" fill="white"/>
<path d="M272.962 64.4078C281.165 86.7245 290.182 113.71 296.843 139.086C296.94 139.454 297.317 139.674 297.685 139.577C298.054 139.48 298.274 139.103 298.177 138.735C291.499 113.325 282.473 86.2856 274.256 63.9311C274.124 63.5739 273.728 63.391 273.371 63.5227C273.013 63.6543 272.831 64.0506 272.962 64.4078Z" fill="white"/>
<path d="M313.678 115.962C308.928 121.145 308.067 126.023 309.478 129.652C310.911 133.327 314.71 135.803 319.462 136.09C321.062 136.187 322.774 135.779 324.275 135.265C327.793 134.066 330.006 131.8 331.671 129.051C333.267 126.416 334.349 123.326 335.64 120.355C335.795 119.998 335.631 119.584 335.275 119.429C334.918 119.274 334.504 119.438 334.349 119.794C333.089 122.705 332.039 125.737 330.466 128.322C328.966 130.796 326.986 132.852 323.819 133.934C322.486 134.389 320.968 134.774 319.548 134.685C315.4 134.433 312.04 132.346 310.791 129.139C309.531 125.886 310.455 121.56 314.714 116.915C314.977 116.629 314.958 116.183 314.672 115.92C314.385 115.657 313.94 115.675 313.676 115.962H313.678Z" fill="white"/>
<path d="M139.503 111.561C142.38 117.764 140.616 125.542 133.894 126.019C132.77 126.099 131.571 125.742 130.517 125.322C127.974 124.308 126.393 122.382 125.189 120.072C123.929 117.636 123.077 114.78 122.054 112.037C121.927 111.705 121.555 111.537 121.221 111.661C120.888 111.786 120.717 112.156 120.838 112.491C121.888 115.284 122.751 118.19 124.039 120.668C125.387 123.266 127.189 125.402 130.036 126.538C131.269 127.029 132.674 127.416 133.986 127.323C141.622 126.781 143.949 118.083 140.679 111.025C140.588 110.805 140.383 110.652 140.146 110.627C139.909 110.603 139.677 110.71 139.543 110.907C139.409 111.104 139.393 111.359 139.503 111.571V111.561Z" fill="white"/>
<path d="M121.636 111.753C120.145 111.694 118.472 111.417 117.392 110.308C115.861 108.733 115.8 105.688 118.037 104.773C119.051 104.353 120.137 104.601 121.187 104.668C121.533 104.674 121.823 104.407 121.846 104.061C121.868 103.715 121.615 103.413 121.271 103.374C120.023 103.292 118.751 103.08 117.541 103.584C114.444 104.844 114.339 109.044 116.458 111.224C117.768 112.57 119.769 112.988 121.582 113.059C121.819 113.078 122.048 112.966 122.178 112.766C122.308 112.566 122.318 112.311 122.204 112.102C122.09 111.893 121.87 111.763 121.632 111.764L121.636 111.753Z" fill="white"/>
<path d="M337.906 120.17C337.906 120.17 327.574 110.995 324.676 107.768C316.089 98.1959 332.469 89.672 336.875 102.702C339.313 109.918 338.147 115.607 337.904 120.17H337.906Z" fill="white"/>
<path d="M330.661 128.214C335.556 125.645 341.594 121.844 343.837 116.775C344.939 114.287 344.137 110.685 340.636 112.212C337.892 113.407 336.491 116.038 335.189 118.487C333.811 121.074 330.661 128.214 330.661 128.214Z" fill="white"/>
<path d="M356.647 223.936C364.39 213.786 367.187 198.996 364.81 186.321C362.195 172.343 353.071 159.34 339.786 154.995C333.461 152.926 326.665 155.486 324.221 161.702C321.777 167.918 325.271 173.916 330.83 177.501C339.307 182.961 343.6 185.308 346.321 192.387C349.402 200.399 349.992 209.572 346.168 217.182C346.042 217.412 346.052 217.692 346.193 217.913C346.334 218.133 346.585 218.259 346.846 218.241C347.107 218.223 347.338 218.063 347.447 217.825C351.45 209.859 350.881 200.258 347.657 191.873C344.824 184.504 340.431 181.988 331.605 176.297C326.63 173.091 323.379 167.757 325.552 162.227C327.715 156.729 333.742 154.527 339.341 156.347C352.151 160.535 360.883 173.105 363.403 186.577C365.713 198.87 363.006 213.217 355.505 223.062C355.266 223.376 355.327 223.825 355.641 224.064C355.956 224.303 356.404 224.242 356.643 223.927L356.647 223.936Z" fill="white"/>
<path d="M340.907 225.93C340.002 225.862 339.063 225.808 338.156 225.652C336.72 225.405 335.367 224.905 334.307 223.817C332.65 222.114 333.362 219.134 335.298 218.063C336.432 217.433 337.961 217.519 339.177 217.675C341.134 217.929 343.063 218.37 344.937 218.991C345.302 219.125 345.494 219.525 345.37 219.893C345.245 220.261 344.85 220.463 344.479 220.348C342.695 219.754 340.858 219.332 338.994 219.088C338.055 218.968 336.867 218.825 335.991 219.31C334.811 219.964 334.311 221.772 335.331 222.811C336.171 223.674 337.261 224.038 338.4 224.235C339.672 224.445 341.01 224.466 342.215 224.6C342.616 224.64 342.916 224.985 342.9 225.388C342.891 225.537 342.844 225.682 342.763 225.808C342.692 225.919 342.518 226.087 342.453 226.19C342.329 226.387 342.198 226.579 342.064 226.768C341.623 227.387 341.146 227.98 340.636 228.544C340.279 228.941 339.909 229.327 339.552 229.722C338.815 230.537 337.589 231.999 337.064 233.475C336.778 234.281 336.69 235.092 337.188 235.745C337.357 235.925 337.595 236.023 337.841 236.016C338.185 236.037 338.53 235.987 338.853 235.869C339.666 235.567 340.395 234.945 341.079 234.258C341.839 233.498 342.549 232.65 343.211 231.975C343.652 231.53 344.051 231.049 344.49 230.594C344.517 230.562 344.813 230.209 344.886 230.146C345.091 229.954 345.393 229.904 345.649 230.02C345.806 230.084 345.94 230.195 346.031 230.338C346.141 230.505 346.181 230.709 346.144 230.907C346.094 231.12 345.984 231.315 345.827 231.467C345.669 231.599 345.519 231.739 345.376 231.887C345.006 232.408 344.674 232.971 344.355 233.527C343.843 234.422 343.19 235.417 342.816 236.444C342.499 237.324 342.396 238.24 342.889 239.147C342.991 239.327 343.193 239.425 343.398 239.395C343.639 239.374 343.875 239.314 344.097 239.216C345.468 238.664 346.321 237.116 347.133 235.915C347.491 235.408 347.817 234.879 348.11 234.332C348.219 234.122 348.32 233.895 348.423 233.681C348.484 233.567 348.633 233.261 348.664 233.225C348.853 232.949 349.214 232.853 349.515 232.998C349.87 233.133 350.05 233.528 349.918 233.884C349.483 235.354 348.696 237.034 348.362 238.675C348.074 240.105 348.152 241.514 349.343 242.692C349.916 243.257 350.603 243.034 351.212 242.62C351.992 242.055 352.638 241.323 353.102 240.478C354.849 237.213 355.659 233.078 354.467 229.502C354.272 228.807 354.042 228.123 353.776 227.452C353.666 227.135 353.474 226.853 353.221 226.633C353.001 226.494 352.874 226.246 352.889 225.986C352.904 225.726 353.059 225.494 353.294 225.382C353.529 225.269 353.807 225.293 354.019 225.445C354.495 225.814 354.862 226.305 355.082 226.866C355.367 227.581 355.615 228.31 355.825 229.05C357.138 232.994 356.289 237.555 354.355 241.155C353.803 242.184 352.614 243.601 351.352 244.179C350.328 244.643 349.252 244.622 348.335 243.712C346.833 242.242 346.596 240.499 346.898 238.71C346.268 239.496 345.523 240.18 344.628 240.546C343.561 240.966 342.295 241.031 341.636 239.84C340.915 238.538 341.006 237.221 341.468 235.955C341.489 235.9 341.51 235.842 341.533 235.785C340.901 236.395 340.16 236.881 339.349 237.217C338.718 237.451 338.038 237.514 337.375 237.402C336.851 237.315 336.378 237.036 336.048 236.621C335.25 235.571 335.256 234.29 335.714 233.002C336.304 231.341 337.66 229.684 338.488 228.769C338.847 228.374 339.214 227.988 339.571 227.591C340.045 227.067 340.488 226.516 340.896 225.94L340.907 225.93Z" fill="white"/>
<path d="M259.068 70.5519C258.566 70.5808 258.087 70.77 257.701 71.0916C256.042 72.5616 256.409 74.8275 257.579 76.4424C258.57 77.8137 260.374 78.8091 262.056 78.7923C262.774 78.7923 263.419 78.5529 264.114 78.4185C264.496 78.3443 264.745 77.9748 264.67 77.5932C264.596 77.2116 264.227 76.9625 263.845 77.0367C263.234 77.1543 262.671 77.3769 262.039 77.3832C260.779 77.3958 259.456 76.6377 258.719 75.6171C257.982 74.5965 257.558 73.0971 258.635 72.1458C258.783 72.0294 258.964 71.9639 259.152 71.9589C259.412 71.9561 259.65 71.8102 259.77 71.5794C259.89 71.3485 259.874 71.0701 259.727 70.8552C259.58 70.6402 259.326 70.5237 259.068 70.5519Z" fill="white"/>
<path d="M348.612 102.281C351.006 99.595 353.917 97.1947 355.939 94.2043C356.157 93.8824 356.073 93.4448 355.751 93.2267C355.429 93.0087 354.992 93.0928 354.773 93.4147C352.785 96.3547 349.914 98.7046 347.56 101.344C347.301 101.634 347.327 102.079 347.617 102.338C347.907 102.596 348.351 102.571 348.61 102.281H348.612Z" fill="white"/>
<path d="M353.904 111.487C359.343 110.11 364.87 108.308 370.372 107.287C370.63 107.253 370.848 107.079 370.939 106.835C371.03 106.591 370.979 106.316 370.807 106.121C370.635 105.926 370.369 105.841 370.116 105.901C364.584 106.924 359.025 108.732 353.559 110.116C353.197 110.224 352.985 110.598 353.077 110.964C353.17 111.33 353.534 111.559 353.904 111.483V111.487Z" fill="white"/>
<path d="M352.826 121.399C356.568 122.321 360.485 123.566 364.147 124.738C364.513 124.838 364.891 124.631 365.005 124.269C365.118 123.908 364.924 123.522 364.567 123.396C360.878 122.216 356.928 120.962 353.156 120.036C352.778 119.943 352.397 120.173 352.303 120.55C352.21 120.928 352.44 121.31 352.818 121.403L352.826 121.399Z" fill="white"/>
<path d="M130.322 264.348C126.192 262.231 102.138 249.018 92.4951 223.883C89.2695 215.483 89.7546 209.029 91.9722 204.124C97.1403 192.689 111.868 189.607 111.868 189.607C112.193 189.58 112.488 189.8 112.555 190.12C112.622 190.44 112.441 190.76 112.132 190.867C112.132 190.867 98.0727 193.758 93.1524 204.647C91.0524 209.305 90.6429 215.424 93.7026 223.404C104.098 250.488 131.486 263.478 131.486 263.478C131.647 263.554 131.769 263.692 131.826 263.86C131.88 264.029 131.864 264.212 131.782 264.369L107.632 309.519L123.695 319.67L146.14 282.265C151.936 272.609 152.374 260.655 147.301 250.601L129.619 215.565C129.504 215.335 129.534 215.059 129.697 214.859L138.046 204.708C138.278 204.449 138.673 204.419 138.941 204.64C139.209 204.86 139.256 205.253 139.048 205.531L130.978 215.357L148.468 250.007C153.744 260.458 153.288 272.885 147.261 282.922L124.468 320.901C124.377 321.05 124.23 321.157 124.06 321.199C123.89 321.238 123.712 321.208 123.565 321.115L106.431 310.287C106.143 310.105 106.045 309.732 106.206 309.432L130.322 264.348Z" fill="white"/>
<path d="M220.946 285.194L178.019 235.657C169.189 225.466 163.739 212.022 157.439 201.627C153.332 194.854 148.869 189.382 142.765 187.088C142.445 186.952 142.29 186.589 142.412 186.264C142.534 185.939 142.89 185.767 143.22 185.875C149.575 188.26 154.273 193.905 158.55 200.955C164.821 211.293 170.216 224.672 178.998 234.807L222.273 284.745C222.473 284.978 222.484 285.319 222.298 285.564L212.378 298.525C212.27 298.663 212.111 298.753 211.937 298.775C211.761 298.795 211.584 298.743 211.447 298.63L157.339 254.041C157.062 253.813 157.023 253.404 157.25 253.127C157.478 252.851 157.887 252.811 158.164 253.039L211.754 297.21L220.946 285.194Z" fill="white"/>
<path d="M118.453 100.899C118.453 104.192 128.862 112.088 140.072 111.496C150.173 110.962 151.744 94.6431 140.072 91.743C126.288 88.3179 118.453 100.899 118.453 100.899Z" fill="white"/>
<path d="M122.266 104.086C121.24 104.064 120.215 104.176 119.219 104.42C116.629 105.014 114.62 107.57 116.675 110.09C118.355 112.152 124.973 112.929 122.57 117.001C120.92 119.796 116.867 119.481 114.204 118.858C107.874 117.362 103.345 112.007 102.393 105.867C101.442 99.7266 106.742 93.3846 112.717 92.0616C117.862 90.9234 124.46 92.721 125.796 98.3469L122.266 104.086Z" fill="white"/>
<path d="M108.507 110.46C102.52 110.794 97.4253 111.964 92.8473 115.975C87.6645 120.519 86.919 129.029 93.5004 132.796C98.2611 135.526 104.983 134.266 109.25 131.162C110.737 130.083 112.266 128.915 113.337 127.443C113.677 126.962 113.976 126.454 114.232 125.923C114.355 125.673 114.637 124.892 114.584 125.165C114.196 127.17 114.015 129.304 115.395 131.03C118.383 134.768 124.307 132.29 125.649 128.52C127.279 123.947 124.954 120.194 123.062 116.263L108.507 110.46Z" fill="white"/>
<path d="M136.426 138.602C136.433 138.8 136.428 138.999 136.411 139.196C136.316 140.183 135.921 141.118 135.28 141.874C134.798 142.44 134.099 142.774 133.356 142.794C131.651 142.815 130.592 141.819 129.996 140.41C129.213 138.541 129.309 135.901 129.666 134.434C129.711 134.198 129.882 134.007 130.11 133.936C130.339 133.864 130.588 133.925 130.759 134.092C130.929 134.26 130.994 134.508 130.926 134.738C130.618 135.998 130.506 138.293 131.191 139.908C131.575 140.822 132.228 141.508 133.333 141.496C133.849 141.496 134.238 141.151 134.524 140.736C134.852 140.241 135.054 139.672 135.112 139.081C135.137 138.649 135.115 138.215 135.046 137.787C135.025 137.619 134.87 137.315 134.836 137.136C134.801 136.987 134.806 136.831 134.851 136.685C134.904 136.517 135.02 136.376 135.175 136.292C135.354 136.191 135.569 136.174 135.763 136.246C135.982 136.328 136.181 136.456 136.346 136.622C136.624 136.882 136.907 137.275 137.1 137.462C137.695 138.025 138.301 138.598 139.089 138.875C139.627 139.069 140.208 139.112 140.769 139.001C141.023 138.957 141.253 138.824 141.418 138.625C141.577 138.403 141.603 138.088 141.506 137.672C141.241 136.536 140.548 136.013 139.855 135.175C139.703 134.997 139.658 134.75 139.739 134.53C139.819 134.31 140.012 134.15 140.243 134.112C140.475 134.074 140.709 134.164 140.855 134.347C141.695 135.351 142.453 136.017 142.77 137.378C142.98 138.258 142.808 138.911 142.47 139.381C142.126 139.833 141.63 140.146 141.073 140.261C140.267 140.43 139.43 140.374 138.654 140.099C137.787 139.795 137.081 139.219 136.418 138.606L136.426 138.602Z" fill="white"/>
<path d="M41.5996 109.87C41.5996 109.87 46.0285 124.149 50.2495 137.753C55.4218 154.425 69.7906 166.585 87.0877 168.93C94.5553 169.955 101.878 170.24 106.878 168.783C110.429 167.75 112.84 165.843 113.506 162.813C115.093 155.587 111.681 150.855 106.175 147.783C102.615 145.796 98.1673 144.513 93.6754 143.698C79.8654 141.204 68.1037 132.207 62.0809 119.532C57.8809 110.766 54.1282 102.862 54.1282 102.862C54.0331 102.645 53.8279 102.498 53.5924 102.476C53.3569 102.455 53.1286 102.564 52.9962 102.76C52.8639 102.955 52.8487 103.208 52.9564 103.418C52.9564 103.418 56.7133 111.325 60.9091 120.09C67.1125 133.142 79.2239 142.405 93.4444 144.975C97.7914 145.763 102.098 146.993 105.542 148.915C110.53 151.704 113.68 155.977 112.239 162.535C111.672 165.112 109.543 166.658 106.517 167.538C101.651 168.953 94.528 168.642 87.262 167.645C70.4647 165.368 56.5112 153.559 51.4885 137.369C47.2675 123.765 42.8386 109.485 42.8386 109.485C42.7752 109.257 42.5931 109.082 42.363 109.028C42.133 108.973 41.8915 109.048 41.7327 109.223C41.5739 109.398 41.5229 109.646 41.5996 109.87Z" fill="white"/>
<path d="M42.1749 108.813C37.3449 109.899 32.225 109.185 28.2602 105.985C27.1827 105.069 26.3451 103.904 25.8201 102.591C25.5681 101.9 25.4652 101.211 25.755 100.655C25.9901 100.256 26.3638 99.9566 26.805 99.8148C27.8424 99.4116 28.6257 99.8148 29.2956 100.43C30.1356 101.207 30.8139 102.307 31.509 103.087C33.4704 105.281 36.2088 106.447 39.153 105.894C39.4969 105.82 39.719 105.485 39.6534 105.139C39.5879 104.793 39.2588 104.563 38.9114 104.62C36.4292 105.086 34.1319 104.074 32.4771 102.223C31.7568 101.417 31.0427 100.285 30.1796 99.4788C29.1506 98.5212 27.9306 97.9857 26.3367 98.6052C25.4526 98.9496 24.9086 99.462 24.602 100.052C24.2989 100.669 24.2046 101.368 24.3333 102.043C24.6294 103.906 26.2526 106.033 27.4433 106.993C31.7231 110.447 37.2462 111.249 42.4583 110.075C42.7762 109.971 42.9624 109.642 42.8884 109.316C42.8145 108.989 42.5046 108.773 42.1728 108.815L42.1749 108.813Z" fill="white"/>
<path d="M39.1828 104.645C35.974 102.364 32.6728 98.9478 32.9248 94.7751C32.9878 93.7356 33.0949 92.6751 33.7648 91.8351C34.651 90.72 36.3793 90.1908 37.2172 91.5663C37.5196 92.0598 37.4881 92.7129 37.4272 93.3765C37.339 94.2165 37.1563 95.0565 37.15 95.7537C37.1311 97.398 37.8598 98.9184 38.4625 100.409C38.5261 100.653 38.7251 100.838 38.9729 100.884C39.2208 100.93 39.4726 100.828 39.6189 100.622C39.7651 100.417 39.7793 100.146 39.6553 99.9264C39.1156 98.5908 38.4205 97.2426 38.4352 95.7705C38.4352 94.9683 38.7019 93.9435 38.7481 92.9922C38.7838 92.2152 38.683 91.4823 38.3281 90.8922C36.9778 88.6767 34.1764 89.2353 32.7526 91.0308C31.9126 92.0808 31.7026 93.3912 31.6354 94.6974C31.354 99.3069 34.8841 103.169 38.4352 105.693C38.621 105.856 38.8833 105.9 39.1118 105.805C39.3402 105.71 39.495 105.494 39.511 105.247C39.527 105.001 39.4013 104.766 39.187 104.643L39.1828 104.645Z" fill="white"/>
<path d="M39.657 100.287C39.594 97.6728 39.5751 95.7597 41.7276 93.8613C42.1276 93.5076 42.6087 93.258 43.1283 93.1347C43.5315 93.0507 43.9494 93.0759 44.235 93.4203C44.445 93.6744 44.3694 94.0251 44.2875 94.3737C44.1573 94.9344 43.9158 95.5014 43.8192 95.934C43.4643 97.53 43.7226 99.1386 44.0817 100.709C44.1853 101.03 44.5165 101.217 44.8445 101.142C45.1725 101.067 45.3883 100.753 45.3417 100.42C45.0246 99.0378 44.7663 97.6224 45.0792 96.2196C45.1989 95.6862 45.5244 94.9596 45.6189 94.2813C45.7071 93.6513 45.6189 93.0591 45.2262 92.6013C44.7645 92.0431 44.0577 91.7478 43.3362 91.8117C42.4332 91.86 41.4693 92.364 40.8645 92.8974C38.3613 95.1045 38.2794 97.2927 38.3445 100.329C38.3532 100.688 38.6507 100.971 39.0091 100.962C39.3675 100.954 39.651 100.656 39.6423 100.298L39.657 100.287Z" fill="white"/>
<path d="M100.277 87.5274L91.8158 80.547C91.509 80.2936 91.0549 80.3368 90.8015 80.6436C90.5481 80.9504 90.5913 81.4045 90.8981 81.6579L99.3653 88.6362C99.5624 88.8115 99.8396 88.8649 100.088 88.7756C100.336 88.6863 100.516 88.4685 100.556 88.2078C100.596 87.9472 100.491 87.6853 100.281 87.5253L100.277 87.5274Z" fill="white"/>
<path d="M111.052 79.8453L102.587 57.5475C102.445 57.1752 102.029 56.9881 101.657 57.1296C101.284 57.2711 101.097 57.6876 101.239 58.0599L109.706 80.3556C109.857 80.7123 110.263 80.8859 110.625 80.7486C110.987 80.6114 111.175 80.2123 111.052 79.8453Z" fill="white"/>
<path d="M126.48 77.468L129.768 68.3792C129.863 68.1355 129.819 67.8595 129.652 67.6581C129.485 67.4568 129.222 67.3618 128.965 67.41C128.707 67.4581 128.497 67.6418 128.414 67.8899L125.129 76.9787C125.035 77.2224 125.079 77.4984 125.246 77.6997C125.413 77.9011 125.676 77.9961 125.933 77.9479C126.19 77.8998 126.401 77.7161 126.484 77.468H126.48Z" fill="white"/>
<path d="M65.3856 225.27C19.7715 247.074 2.9022 297.023 10.6575 337.009C14.5446 357.064 24.6225 374.609 40.3347 384.889C56.0469 395.168 77.4081 398.207 103.904 389.152C137.206 377.772 159.707 346.484 180.356 317.993C180.6 317.657 180.525 317.187 180.188 316.943C179.852 316.7 179.382 316.775 179.138 317.111C158.668 345.354 136.431 376.449 103.417 387.73C77.469 396.596 56.553 393.69 41.1579 383.629C25.7628 373.568 15.9411 356.362 12.1317 336.723C4.494 297.327 21.0945 248.103 66.0345 226.626C66.4091 226.447 66.5675 225.998 66.3883 225.624C66.2092 225.249 65.7602 225.091 65.3856 225.27Z" fill="white"/>
<path d="M189.532 153.412C238.534 143.771 292.495 112.983 317.401 68.992C322.702 59.6281 328.435 45.976 329.709 32.893C330.568 24.073 329.397 15.4987 324.766 8.638C321.652 4.018 316.845 1.4707 311.465 0.334602C303.548 -1.3454 294.387 0.0637021 287.768 2.3128C267.146 9.3184 244.962 29.239 239.846 51.5053C239.757 51.8933 239.999 52.2801 240.387 52.3694C240.775 52.4588 241.162 52.2167 241.251 51.8287C246.262 30.0034 268.028 10.528 288.232 3.6652C294.637 1.4896 303.504 0.112002 311.166 1.7311C316.177 2.7811 320.673 5.1373 323.571 9.4339C328.019 16.0237 329.1 24.2641 328.275 32.7439C327.015 45.6211 321.366 59.0548 316.15 68.2717C291.437 111.937 237.87 142.435 189.255 151.999C188.873 152.083 188.628 152.457 188.703 152.841C188.778 153.225 189.147 153.479 189.532 153.412Z" fill="white"/>
<path d="M384.094 176.56C405.233 164.149 431.693 180.629 433.31 204.139C434.885 227.067 420.08 244.324 403.798 258.319C384.258 275.119 356.796 280.806 332.888 288.309C287.666 302.503 231.999 325.689 208.16 370.047C202.389 380.789 203.765 393.116 210.617 402.843C216.974 411.873 228.047 418.66 242.512 419.811C263.974 421.52 292.969 410.768 324.868 376.148C325.093 375.853 325.058 375.435 324.786 375.183C324.514 374.93 324.095 374.925 323.818 375.171C292.347 409.328 263.808 420.063 242.634 418.375C228.667 417.264 217.944 410.733 211.802 402.016C205.266 392.734 203.933 380.978 209.437 370.726C233.102 326.678 288.435 303.771 333.326 289.68C357.416 282.12 385.058 276.331 404.745 259.407C421.358 245.127 436.363 227.445 434.754 204.038C433.074 179.508 405.424 162.368 383.374 175.318C383.14 175.442 382.992 175.685 382.99 175.95C382.989 176.215 383.132 176.459 383.364 176.587C383.597 176.714 383.88 176.704 384.102 176.56H384.094Z" fill="white"/>
<path d="M60.1451 304.172C60.114 303.159 59.9175 302.157 59.5634 301.207C59.1245 299.918 58.5554 298.714 58.211 297.753C57.9611 297.051 57.8309 296.451 57.8729 295.999C57.8926 295.559 58.1152 295.154 58.4756 294.901C58.8589 294.657 59.3097 294.542 59.7629 294.571C60.4034 294.571 61.3274 294.752 62.6147 295.149C63.8023 295.482 64.9577 295.922 66.0671 296.461C66.2978 296.577 66.4493 296.807 66.4646 297.064C66.4799 297.322 66.3566 297.568 66.1412 297.71C65.9258 297.852 65.651 297.868 65.4203 297.753C64.384 297.252 63.3052 296.844 62.1968 296.535C61.4877 296.297 60.7568 296.129 60.0149 296.035C59.7834 296.021 59.5511 296.037 59.324 296.083C59.3186 296.106 59.3144 296.129 59.3114 296.152C59.3083 296.23 59.3132 296.307 59.3261 296.383C59.379 296.688 59.462 296.987 59.5739 297.276C60.2942 299.292 61.9112 302.329 61.529 305.071C61.5064 305.316 61.3879 305.543 61.1993 305.701C60.9444 305.91 60.5999 305.973 60.2879 305.867C60.0029 305.771 59.7317 305.637 59.4815 305.47C59.2213 305.283 58.9435 305.121 58.652 304.987C57.812 304.712 56.4218 304.147 55.1366 303.92C54.7155 303.828 54.2829 303.8 53.8535 303.836C54.0341 304.303 54.2861 304.958 54.3113 305.012C54.7544 306.001 56.6087 308.257 57.5726 310.004C58.0976 310.955 58.3391 311.812 58.2215 312.348C58.1732 312.613 58.029 312.852 57.8162 313.018C57.522 313.231 57.1443 313.292 56.7977 313.183C56.3114 313.017 55.8484 312.789 55.4201 312.505C55.1043 312.288 54.7611 312.115 54.3995 311.989C53.7291 311.823 53.0465 311.711 52.3583 311.655C51.7272 311.583 51.0887 311.616 50.4683 311.751C50.2478 311.812 50.0924 311.873 50.0357 312.01C49.9412 312.22 50.0357 312.507 50.168 312.833C50.4641 313.601 51.0626 314.513 51.6737 315.468C52.2008 316.296 52.772 317.094 53.3306 317.9C53.4898 318.111 53.5208 318.392 53.4114 318.632C53.302 318.873 53.0698 319.034 52.8062 319.053C52.5427 319.071 52.2902 318.944 52.1483 318.721C51.5792 317.9 50.9954 317.085 50.4578 316.243C49.7921 315.193 49.1495 314.194 48.824 313.354C48.5363 312.608 48.4943 311.953 48.7085 311.447C48.9036 311.005 49.2684 310.66 49.7207 310.489C50.2793 310.25 51.155 310.13 52.4507 310.218C53.2172 310.281 53.9777 310.404 54.725 310.586C55.2752 310.716 56.0333 311.216 56.6759 311.575L56.7242 311.6V311.573C56.4983 311.004 56.2125 310.462 55.8716 309.954C54.8384 308.314 53.3936 306.476 53.0009 305.602C52.9526 305.495 52.2827 303.887 52.247 303.502C52.1981 303.194 52.3486 302.888 52.6229 302.738C53.3306 302.341 54.3323 302.305 55.3949 302.497C56.7494 302.738 58.2131 303.322 59.1014 303.61C59.4449 303.749 59.7724 303.925 60.0779 304.135L60.1451 304.172Z" fill="white"/>
<path d="M190.605 36.8347C190.69 36.5761 190.622 36.2913 190.429 36.099C190.237 35.9066 189.952 35.8394 189.693 35.9254L172.053 41.8054C171.816 41.8834 171.636 42.0794 171.578 42.3229C171.521 42.5664 171.594 42.8222 171.772 42.9982L183.532 54.7582C183.708 54.936 183.964 55.0094 184.207 54.9519C184.451 54.8945 184.647 54.7145 184.725 54.4768L190.605 36.8347ZM173.605 42.8008L183.723 52.9186L188.782 37.7419L173.605 42.8008Z" fill="white"/>
<path d="M168.909 373.347L188.451 377.051L172.613 392.893L168.909 373.347Z" fill="white"/>
<path d="M39.2992 211.997L26.3191 227.071L20.521 205.431L39.2992 211.997Z" fill="#6D31ED"/>
<path d="M352.79 344.053V350.409C352.79 350.807 353.112 351.13 353.51 351.13C353.908 351.13 354.23 350.807 354.23 350.409V344.053C354.23 343.655 353.908 343.332 353.51 343.332C353.112 343.332 352.79 343.655 352.79 344.053Z" fill="white"/>
<path d="M363.557 353.39H357.201C356.943 353.39 356.706 353.527 356.577 353.75C356.448 353.973 356.448 354.247 356.577 354.47C356.706 354.693 356.943 354.83 357.201 354.83H363.557C363.815 354.83 364.052 354.693 364.181 354.47C364.31 354.247 364.31 353.973 364.181 353.75C364.052 353.527 363.815 353.39 363.557 353.39Z" fill="white"/>
<path d="M352.79 357.821V364.177C352.79 364.435 352.927 364.672 353.15 364.801C353.373 364.93 353.647 364.93 353.87 364.801C354.093 364.672 354.23 364.435 354.23 364.177V357.821C354.23 357.423 353.908 357.1 353.51 357.1C353.112 357.1 352.79 357.423 352.79 357.821Z" fill="white"/>
<path d="M349.807 353.39H343.451C343.053 353.39 342.73 353.712 342.73 354.11C342.73 354.508 343.053 354.83 343.451 354.83H349.807C350.065 354.83 350.302 354.693 350.431 354.47C350.56 354.247 350.56 353.973 350.431 353.75C350.302 353.527 350.065 353.39 349.807 353.39Z" fill="white"/>
<path d="M210.892 216.019V222.367C210.877 222.634 211.011 222.886 211.24 223.023C211.468 223.161 211.754 223.161 211.982 223.023C212.211 222.886 212.345 222.634 212.33 222.367V216.011C212.345 215.744 212.211 215.492 211.982 215.354C211.754 215.217 211.468 215.217 211.24 215.354C211.011 215.492 210.877 215.744 210.892 216.011V216.019Z" fill="white"/>
<path d="M221.667 225.36H215.311C214.913 225.36 214.59 225.682 214.59 226.08C214.59 226.478 214.913 226.8 215.311 226.8H221.667C221.925 226.8 222.162 226.663 222.291 226.44C222.42 226.217 222.42 225.943 222.291 225.72C222.162 225.497 221.925 225.36 221.667 225.36Z" fill="white"/>
<path d="M210.892 229.783V236.139C210.877 236.406 211.011 236.658 211.24 236.796C211.468 236.933 211.754 236.933 211.982 236.796C212.211 236.658 212.345 236.406 212.33 236.139V229.783C212.345 229.516 212.211 229.264 211.982 229.127C211.754 228.989 211.468 228.989 211.24 229.127C211.011 229.264 210.877 229.516 210.892 229.783Z" fill="white"/>
<path d="M207.907 225.36H201.551C201.293 225.36 201.055 225.497 200.927 225.72C200.798 225.943 200.798 226.217 200.927 226.44C201.055 226.663 201.293 226.8 201.551 226.8H207.907C208.165 226.8 208.402 226.663 208.531 226.44C208.66 226.217 208.66 225.943 208.531 225.72C208.402 225.497 208.165 225.36 207.907 225.36Z" fill="white"/>
<path d="M25.6198 151.781V158.137C25.6198 158.535 25.9422 158.858 26.3401 158.858C26.7379 158.858 27.0604 158.535 27.0604 158.137V151.781C27.0604 151.383 26.7379 151.06 26.3401 151.06C25.9422 151.06 25.6198 151.383 25.6198 151.781Z" fill="white"/>
<path d="M36.3994 161.13H30.0406C29.6428 161.13 29.3203 161.452 29.3203 161.85C29.3203 162.248 29.6428 162.57 30.0406 162.57H36.3994C36.7972 162.57 37.1197 162.248 37.1197 161.85C37.1197 161.452 36.7972 161.13 36.3994 161.13Z" fill="white"/>
<path d="M25.6198 165.553V171.909C25.6198 172.307 25.9422 172.63 26.3401 172.63C26.7379 172.63 27.0604 172.307 27.0604 171.909V165.553C27.0604 165.295 26.9231 165.058 26.7002 164.929C26.4773 164.8 26.2028 164.8 25.9799 164.929C25.757 165.058 25.6198 165.295 25.6198 165.553Z" fill="white"/>
<path d="M22.6394 161.13H16.2806C15.8828 161.13 15.5603 161.452 15.5603 161.85C15.5603 162.248 15.8828 162.57 16.2806 162.57H22.6394C23.0372 162.57 23.3597 162.248 23.3597 161.85C23.3597 161.452 23.0372 161.13 22.6394 161.13Z" fill="white"/>
<path d="M230.698 110.442L227.164 103.092C226.99 102.734 226.558 102.584 226.2 102.758C225.841 102.932 225.692 103.364 225.866 103.722L229.4 111.072C229.574 111.431 230.006 111.58 230.364 111.406C230.722 111.232 230.872 110.801 230.698 110.442ZM213.018 111.072L216.552 103.722C216.726 103.364 216.577 102.932 216.218 102.758C215.86 102.584 215.428 102.734 215.254 103.092L211.718 110.442C211.544 110.801 211.694 111.233 212.053 111.407C212.412 111.581 212.844 111.431 213.018 111.072ZM241.234 96.2336L233.289 94.4213C232.901 94.3331 232.515 94.5762 232.427 94.9641C232.339 95.3521 232.582 95.738 232.97 95.8262L240.914 97.6385C241.302 97.7266 241.688 97.4836 241.776 97.0956C241.865 96.7077 241.621 96.3217 241.234 96.2336ZM201.504 97.6322L209.448 95.8199C209.836 95.7312 210.078 95.3447 209.99 94.9568C209.901 94.5688 209.515 94.3263 209.127 94.415L201.184 96.2273C200.796 96.3154 200.553 96.7014 200.642 97.0893C200.73 97.4773 201.116 97.7203 201.504 97.6322ZM204.83 80.2547L211.199 85.3346C211.511 85.5752 211.957 85.5216 212.203 85.2142C212.448 84.9068 212.402 84.4593 212.098 84.209L205.725 79.1291C205.525 78.9546 205.246 78.904 204.997 78.9972C204.749 79.0905 204.572 79.3125 204.537 79.5753C204.501 79.8381 204.613 80.0991 204.828 80.2547H204.83ZM236.691 79.1291L230.32 84.209C230.016 84.4593 229.97 84.9068 230.215 85.2142C230.461 85.5216 230.907 85.5752 231.219 85.3346L237.588 80.2547C237.878 80.0013 237.917 79.5647 237.677 79.2635C237.437 78.9623 237.003 78.9031 236.691 79.1291ZM220.49 72.0206V80.1686C220.475 80.4348 220.609 80.6872 220.838 80.8247C221.066 80.9621 221.352 80.9621 221.58 80.8247C221.809 80.6872 221.943 80.4348 221.928 80.1686V72.0206C221.943 71.7544 221.809 71.5019 221.58 71.3645C221.352 71.2271 221.066 71.2271 220.838 71.3645C220.609 71.5019 220.475 71.7544 220.49 72.0206Z" fill="white"/>
<path d="M312.042 84.6354C316.11 80.2359 318.907 75.0909 322.036 70.0404C322.18 69.8215 322.194 69.5414 322.073 69.3092C321.951 69.0769 321.712 68.9293 321.45 68.9237C321.188 68.9181 320.943 69.0555 320.812 69.2823C317.733 74.253 314.991 79.3266 310.986 83.6589C310.781 83.8406 310.697 84.1229 310.769 84.3873C310.841 84.6516 311.056 84.8522 311.325 84.9049C311.594 84.9575 311.87 84.8531 312.036 84.6354H312.042Z" fill="white"/>
<path d="M324.684 64.7947C325.159 63.919 325.558 63.0181 326.003 62.1298C326.182 61.7743 326.038 61.3413 325.683 61.1627C325.327 60.9841 324.894 61.1275 324.716 61.483C324.277 62.3587 323.876 63.247 323.418 64.108C323.269 64.4501 323.406 64.8494 323.734 65.028C324.061 65.2066 324.471 65.1053 324.678 64.7947H324.684Z" fill="white"/>
<path d="M14.6431 266.59C7.43172 276.951 2.82642 291.389 1.74282 304.375C1.69353 304.961 2.12884 305.477 2.71512 305.526C3.3014 305.575 3.81663 305.14 3.86592 304.554C4.91592 291.924 9.37842 277.884 16.3924 267.804C16.7282 267.321 16.6088 266.657 16.1257 266.321C15.6427 265.985 14.9789 266.105 14.6431 266.588V266.59Z" fill="white"/>
<path d="M0.407949 313.463C0.246249 314.698 0.00684888 315.956 -0.0120511 317.206C-0.0166903 317.794 0.456231 318.274 1.04425 318.279C1.63227 318.283 2.11271 317.81 2.11735 317.222C2.11735 316.059 2.36095 314.891 2.51215 313.741C2.53973 313.187 2.1376 312.705 1.58783 312.632C1.03805 312.56 0.52474 312.921 0.407949 313.463Z" fill="white"/>
</g>
<defs>
<clipPath id="clip0_1_62">
<rect width="445" height="418" fill="white" transform="translate(0 0.5)"/>
</clipPath>
</defs>
</svg>
