<svg width="103" height="36" viewBox="0 0 103 36" fill="none" xmlns="http://www.w3.org/2000/svg">
<g clip-path="url(#clip0_1_492)">
<path d="M45.2735 22.7836H51.2673C51.2673 24.7388 49.6859 26.3239 47.7353 26.3239H40.6979V12.0819C40.6979 9.54893 42.7464 7.49553 45.2735 7.49553V22.7836Z" fill="#171A1F"/>
<path d="M59.6653 26.5373C58.2025 26.5373 56.8824 26.2244 55.705 25.5986C54.5456 24.9727 53.6269 24.0787 52.949 22.9165C52.289 21.7542 51.959 20.3953 51.959 18.8397C51.959 17.3019 52.2979 15.9519 52.9758 14.7897C53.6536 13.6095 54.5812 12.7065 55.7586 12.0807C56.9359 11.4549 58.256 11.142 59.7188 11.142C61.1816 11.142 62.5016 11.4549 63.679 12.0807C64.8563 12.7065 65.7838 13.6095 66.4615 14.7897C67.1399 15.9519 67.4784 17.3019 67.4784 18.8397C67.4784 20.3774 67.1311 21.7363 66.435 22.9165C65.7573 24.0787 64.8206 24.9727 63.6254 25.5986C62.4481 26.2244 61.128 26.5373 59.6653 26.5373ZM59.6653 22.5678C60.5393 22.5678 61.2797 22.2459 61.8861 21.6022C62.5105 20.9585 62.8227 20.0377 62.8227 18.8397C62.8227 17.6416 62.5194 16.7208 61.9129 16.0771C61.3242 15.4333 60.5928 15.1115 59.7188 15.1115C58.8268 15.1115 58.0866 15.4333 57.4978 16.0771C56.9092 16.7029 56.6148 17.6238 56.6148 18.8397C56.6148 20.0377 56.9002 20.9585 57.4711 21.6022C58.0598 22.2459 58.7911 22.5678 59.6653 22.5678Z" fill="#171A1F"/>
<path d="M75.6184 11.1384C76.6713 11.1384 77.5898 11.3529 78.3747 11.7821C79.1773 12.2112 79.7926 12.7745 80.2207 13.4718C80.2207 12.3016 81.167 11.3529 82.3346 11.3529H84.7965V26.2923C84.7965 27.6691 84.5197 28.9118 83.9668 30.0204C83.4315 31.1469 82.6025 32.041 81.4784 32.7026C80.3726 33.3641 78.9901 33.695 77.3314 33.695C75.1191 33.695 73.3261 33.1675 71.953 32.1125C70.5792 31.0754 69.7943 29.6628 69.5983 27.8748H74.1198C74.263 28.4469 74.6015 28.8939 75.1367 29.2158C75.672 29.5555 76.3321 29.7255 77.117 29.7255C78.0627 29.7255 78.8116 29.4483 79.3645 28.8939C79.9357 28.3576 80.2207 27.4904 80.2207 26.2923V24.1735C79.775 24.8708 79.1597 25.443 78.3747 25.89C77.5898 26.3191 76.6713 26.5337 75.6184 26.5337C74.3878 26.5337 73.2725 26.2208 72.2739 25.595C71.2746 24.9512 70.4809 24.0483 69.892 22.886C69.3215 21.7059 69.0359 20.347 69.0359 18.8092C69.0359 17.2715 69.3215 15.9215 69.892 14.7593C70.4809 13.597 71.2746 12.7029 72.2739 12.0771C73.2725 11.4513 74.3878 11.1384 75.6184 11.1384ZM80.2207 18.8361C80.2207 17.6917 79.8998 16.7887 79.2573 16.1272C78.6332 15.4655 77.8659 15.1348 76.9562 15.1348C76.0465 15.1348 75.2704 15.4655 74.6286 16.1272C74.0038 16.7708 73.6917 17.6648 73.6917 18.8092C73.6917 19.9536 74.0038 20.8655 74.6286 21.545C75.2704 22.2066 76.0465 22.5374 76.9562 22.5374C77.8659 22.5374 78.6332 22.2066 79.2573 21.545C79.8998 20.8834 80.2207 19.9804 80.2207 18.8361Z" fill="#171A1F"/>
<path d="M94.1358 26.5373C92.6732 26.5373 91.353 26.2244 90.1753 25.5986C89.0159 24.9727 88.0974 24.0787 87.4197 22.9165C86.7596 21.7542 86.4292 20.3953 86.4292 18.8397C86.4292 17.3019 86.7684 15.9519 87.4461 14.7897C88.1238 13.6095 89.0519 12.7065 90.2289 12.0807C91.4066 11.4549 92.7268 11.142 94.1894 11.142C95.652 11.142 96.9722 11.4549 98.1492 12.0807C99.3269 12.7065 100.254 13.6095 100.932 14.7897C101.61 15.9519 101.949 17.3019 101.949 18.8397C101.949 20.3774 101.601 21.7363 100.906 22.9165C100.228 24.0787 99.291 24.9727 98.0956 25.5986C96.9186 26.2244 95.5985 26.5373 94.1358 26.5373ZM94.1358 22.5678C95.0096 22.5678 95.7504 22.2459 96.3569 21.6022C96.981 20.9585 97.2931 20.0377 97.2931 18.8397C97.2931 17.6416 96.9899 16.7208 96.3834 16.0771C95.7945 15.4333 95.0632 15.1115 94.1894 15.1115C93.2973 15.1115 92.5572 15.4333 91.9683 16.0771C91.3795 16.7029 91.0851 17.6238 91.0851 18.8397C91.0851 20.0377 91.3707 20.9585 91.9419 21.6022C92.53 22.2459 93.2614 22.5678 94.1358 22.5678Z" fill="#171A1F"/>
<path d="M22.9276 16.8128C26.6743 16.8128 29.7116 13.7684 29.7116 10.0128C29.7116 6.25728 26.6743 3.21281 22.9276 3.21281C19.1809 3.21281 16.1436 6.25728 16.1436 10.0128C16.1436 13.7684 19.1809 16.8128 22.9276 16.8128Z" fill="#15ABFF"/>
<path d="M22.9276 33.1228C26.6743 33.1228 29.7116 30.0784 29.7116 26.3228C29.7116 22.5673 26.6743 19.5228 22.9276 19.5228C19.1809 19.5228 16.1436 22.5673 16.1436 26.3228C16.1436 30.0784 19.1809 33.1228 22.9276 33.1228Z" fill="#FF56A5"/>
<path d="M0.445007 14.7728C0.445007 8.3884 5.60845 3.21281 11.9778 3.21281V21.5728C11.9778 27.9572 6.81437 33.1328 0.445007 33.1328V14.7728Z" fill="#6D31ED"/>
</g>
<defs>
<clipPath id="clip0_1_492">
<rect width="103" height="36" rx="4" fill="white"/>
</clipPath>
</defs>
</svg>
